<svg width="64" height="64" viewBox="0 0 64 64" fill="none" xmlns="http://www.w3.org/2000/svg">
  <defs>
    <linearGradient id="ssc-green" x1="0" y1="0" x2="1" y2="1">
      <stop offset="0" stop-color="#16A34A"/>
      <stop offset="1" stop-color="#22C55E"/>
    </linearGradient>
  </defs>

  <rect x="2" y="2" width="60" height="60" rx="18" fill="#ECFDF5"/>
  <rect x="2" y="2" width="60" height="60" rx="18" stroke="#16A34A" stroke-width="2"/>

  <!-- Leaf -->
  <path d="M20 18C26 14 34 14 40 18C44 22 45.5 29 42 34C38 40 30 44 24 42C18 40 16 32 17 26C17.5 24 18.5 21 20 18Z"
        fill="url(#ssc-green)"/>
  <path d="M24 20C25 26 28 30 34 34" stroke="#ECFDF5" stroke-width="2" stroke-linecap="round"/>

  <!-- Cart -->
  <path d="M18 36H41L44 28H24" stroke="#15803D" stroke-width="2.4" stroke-linecap="round" stroke-linejoin="round"/>
  <circle cx="24" cy="40" r="3" fill="#16A34A"/>
  <circle cx="38" cy="40" r="3" fill="#16A34A"/>
</svg>

