<svg width="360" height="80" viewBox="0 0 360 80" fill="none" xmlns="http://www.w3.org/2000/svg">
  <defs>
    <linearGradient id="ssc-green" x1="0" y1="0" x2="1" y2="1">
      <stop offset="0" stop-color="#16A34A"/>
      <stop offset="1" stop-color="#22C55E"/>
    </linearGradient>
  </defs>

  <!-- Icon container -->
  <rect x="8" y="8" width="64" height="64" rx="20" fill="#ECFDF5"/>
  <rect x="8" y="8" width="64" height="64" rx="20" stroke="#16A34A" stroke-width="2"/>

  <!-- Leaf -->
  <path d="M30 26C36 22 44 22 50 26C54 30 55.5 37 52 42C48 48 40 52 34 50C28 48 26 40 27 34C27.5 32 28.5 29 30 26Z"
        fill="url(#ssc-green)"/>
  <path d="M34 28C35 34 38 38 44 42" stroke="#ECFDF5" stroke-width="2" stroke-linecap="round"/>

  <!-- Cart -->
  <path d="M26 48H53L56 38H32" stroke="#15803D" stroke-width="2.4" stroke-linecap="round" stroke-linejoin="round"/>
  <circle cx="32" cy="52" r="3" fill="#16A34A"/>
  <circle cx="50" cy="52" r="3" fill="#16A34A"/>

  <!-- Text: Smart Saving Club -->
  <g transform="translate(88, 22)">
    <text x="0" y="20" font-family="system-ui, -apple-system, BlinkMacSystemFont, 'Segoe UI', sans-serif"
          font-size="22" font-weight="700" fill="#064E3B">
      Smart Saving Club
    </text>
    <text x="0" y="42" font-family="system-ui, -apple-system, BlinkMacSystemFont, 'Segoe UI', sans-serif"
          font-size="12" font-weight="400" fill="#047857">
      Wholesale-price fruits & vegetables for your compound
    </text>
  </g>
</svg>
